<?xml version="1.0" encoding="utf-8"?>
<!-- Generator: Adobe Illustrator 20.1.0, SVG Export Plug-In . SVG Version: 6.00 Build 0)  -->
<svg version="1.1" id="infographic" xmlns="http://www.w3.org/2000/svg" xmlns:xlink="http://www.w3.org/1999/xlink" x="0px"
	 y="0px" viewBox="0 0 180 298" style="enable-background:new 0 0 180 298;" xml:space="preserve">
<style type="text/css">
	.st0{fill:#D5E5E6;}
	.st1{fill:#FFFFFF;}
	.st2{fill:#E6EFF0;}
	.st3{fill:#FFFF88;}
	.st4{fill:#262626;}
</style>
<g>
	<path class="st0" d="M131.8,50.4h-4.5V33c0.9-0.6,1.5-1.5,1.5-2.7v-4.9c0-1.8-1.5-3.3-3.2-3.3h-15.4c-1.8,0-3.2,1.5-3.2,3.3v4.9
		c0,1.4,0.9,2.6,2.2,3v17.1H97.5V19c1.1-0.5,1.9-1.6,1.9-2.9v-4.9c0-1.8-1.5-3.2-3.2-3.2H80.6c-1.8,0-3.2,1.5-3.2,3.2v4.9
		c0,1.3,0.8,2.4,1.9,2.9v31.4H68.1V33c0.9-0.6,1.5-1.5,1.5-2.7v-4.9c0-1.8-1.4-3.3-3.2-3.3H51c-1.8,0-3.2,1.5-3.2,3.3v4.9
		c0,1.4,0.9,2.6,2.2,3v17.1h-2c-22.3,0-40.4,18.1-40.4,40.5v150.7c0,22.3,18.1,40.5,40.4,40.5h29.6c0,0.1-0.1,0.2-0.1,0.4v4.9
		c0,1.8,1.5,3.2,3.2,3.2h15.4c1.8,0,3.2-1.5,3.2-3.2v-4.9c0-0.1-0.1-0.2-0.1-0.4h32.6c22.3,0,40.4-18.1,40.4-40.5V90.8
		C172.3,68.5,154.2,50.4,131.8,50.4z"/>
	<path class="st1" d="M96.1,8c1.8,0,3.2,1.5,3.2,3.2v4.9c0,1.3-0.8,2.4-1.9,2.9v31.4h11.7V33.3c-1.2-0.5-2.2-1.6-2.2-3v-4.9
		c0-1.8,1.5-3.3,3.2-3.3h15.4c1.8,0,3.2,1.5,3.2,3.3v4.9c0,1.2-0.6,2.1-1.5,2.7v17.4h4.5c22.3,0,40.4,18.1,40.4,40.5v150.7
		c0,22.3-18.1,40.5-40.4,40.5H99.2c0,0.1,0.1,0.2,0.1,0.4v4.9c0,1.8-1.5,3.2-3.2,3.2H80.6c-1.8,0-3.2-1.5-3.2-3.2v-4.9
		c0-0.1,0.1-0.2,0.1-0.4H47.9c-22.3,0-40.4-18.1-40.4-40.5V90.8c0-22.3,18.1-40.5,40.4-40.5h2V33.3c-1.2-0.5-2.2-1.6-2.2-3v-4.9
		c0-1.8,1.5-3.3,3.2-3.3h15.4c1.8,0,3.2,1.5,3.2,3.3v4.9c0,1.2-0.6,2.1-1.5,2.7v17.4h11.1V19c-1.1-0.5-1.9-1.6-1.9-2.9v-4.9
		c0-1.8,1.5-3.2,3.2-3.2H96.1 M96.1,3H80.6c-4.6,0-8.3,3.7-8.3,8.3v4.9c0,1.9,0.7,3.8,1.9,5.2v1.3c-1.1-3.2-4.2-5.5-7.8-5.5H51
		c-4.6,0-8.3,3.7-8.3,8.3v4.9c0,2.1,0.8,4,2.2,5.5v9.7C21.2,47,2.4,66.8,2.4,90.8v150.7c0,25.1,20.4,45.5,45.5,45.5h24.5v0.2
		c0,4.6,3.7,8.3,8.3,8.3h15.4c4.6,0,8.3-3.7,8.3-8.3V287h27.5c25.1,0,45.5-20.4,45.5-45.5V90.8c0-24.9-20.1-45.2-44.9-45.5V35
		c1-1.4,1.5-3,1.5-4.8v-4.9c0-4.6-3.7-8.3-8.3-8.3h-15.4c-3.6,0-6.7,2.3-7.8,5.5v-1.3c1.2-1.4,1.9-3.3,1.9-5.2v-4.9
		C104.3,6.7,100.6,3,96.1,3L96.1,3z M73.1,35c0.5-0.6,0.8-1.3,1.1-2.1v12.4h-1.1V35L73.1,35z M102.5,45.4V33c0.4,1,0.9,2,1.7,2.8
		v9.6H102.5L102.5,45.4z"/>
</g>
<g>
	<g>
		<g>
			<g>
				<g>
					<g>
						<path class="st2" d="M172.3,241.5c0,22.3-18.1,40.5-40.4,40.5H47.9c-22.3,0-40.4-18.1-40.4-40.5V90.8
							c0-22.3,18.1-40.5,40.4-40.5h83.9c22.3,0,40.4,18.1,40.4,40.5V241.5z"/>
					</g>
				</g>
			</g>
		</g>
		<g>
			<g>
				<g>
					<path class="st3" d="M158.8,102.4v126.1c0,18.7-15.1,33.8-33.9,33.8H54.8c-18.7,0-33.9-15.2-33.9-33.8V102.4
						c0-18.7,15.2-33.9,33.9-33.9H125C143.7,68.5,158.8,83.7,158.8,102.4z"/>
				</g>
			</g>
		</g>
		<g>
			<g>
				<g>
					<rect x="49.9" y="24.1" class="st2" width="18.2" height="44.5"/>
				</g>
			</g>
		</g>
		<g>
			<g>
				<g>
					<rect x="109.2" y="24.1" class="st2" width="18.2" height="44.5"/>
				</g>
			</g>
		</g>
		<g>
			<g>
				<g>
					<rect x="79.2" y="8.9" class="st2" width="18.2" height="59.7"/>
				</g>
			</g>
		</g>
		<g>
			<g>
				<g>
					<path class="st3" d="M158.8,118.1v110.4c0,18.7-15.1,33.8-33.9,33.8H54.8c-18.7,0-33.9-15.2-33.9-33.8V118.1H158.8z"/>
				</g>
			</g>
		</g>
		<g>
			<g>
				<g>
					<path class="st1" d="M132.4,227.3c0,3.4-2.7,6.1-6.1,6.1H53.4c-3.4,0-6.1-2.7-6.1-6.1v-72.9c0-3.4,2.7-6.1,6.1-6.1h72.9
						c3.4,0,6.1,2.7,6.1,6.1V227.3z"/>
				</g>
			</g>
		</g>
		<g>
			<g>
				<g>
					<path class="st1" d="M151.2,120.4c0,3.7-3,6.7-6.7,6.7l0,0c-3.7,0-6.7-3-6.7-6.7V98.8c0-3.7,3-6.7,6.7-6.7l0,0
						c3.7,0,6.7,3,6.7,6.7V120.4z"/>
				</g>
			</g>
		</g>
	</g>
	<g>
		<g>
			<path class="st0" d="M69.7,30.3c0,1.8-1.4,3.2-3.2,3.2H51c-1.8,0-3.2-1.5-3.2-3.2v-4.9c0-1.8,1.5-3.3,3.2-3.3h15.4
				c1.8,0,3.2,1.5,3.2,3.3V30.3z"/>
		</g>
	</g>
	<g>
		<g>
			<path class="st0" d="M128.9,30.3c0,1.8-1.5,3.2-3.2,3.2h-15.4c-1.8,0-3.2-1.5-3.2-3.2v-4.9c0-1.8,1.5-3.3,3.2-3.3h15.4
				c1.8,0,3.2,1.5,3.2,3.3V30.3z"/>
		</g>
	</g>
	<g>
		<g>
			<path class="st0" d="M99.3,287.2c0,1.8-1.5,3.2-3.2,3.2H80.6c-1.8,0-3.2-1.5-3.2-3.2v-4.9c0-1.8,1.5-3.3,3.2-3.3h15.4
				c1.8,0,3.2,1.5,3.2,3.3V287.2z"/>
		</g>
	</g>
	<g>
		<g>
			<path class="st0" d="M99.3,16.1c0,1.8-1.5,3.2-3.2,3.2H80.6c-1.8,0-3.2-1.5-3.2-3.2v-4.9c0-1.8,1.5-3.2,3.2-3.2h15.4
				c1.8,0,3.2,1.5,3.2,3.2V16.1z"/>
		</g>
	</g>
</g>
<rect x="62.7" y="173.9" class="st4" width="3.3" height="33.8"/>
<rect x="69.4" y="173.9" class="st4" width="6.2" height="33.8"/>
<rect x="110.8" y="173.9" class="st4" width="6.3" height="33.8"/>
<rect x="93.3" y="173.9" class="st4" width="6.3" height="33.8"/>
<rect x="79.5" y="173.9" class="st4" width="3.3" height="33.8"/>
<rect x="86.6" y="173.9" class="st4" width="3.3" height="33.8"/>
<rect x="103.5" y="173.9" class="st4" width="3.3" height="33.8"/>
</svg>
