<?xml version="1.0" encoding="utf-8"?>
<!-- Generator: Adobe Illustrator 20.1.0, SVG Export Plug-In . SVG Version: 6.00 Build 0)  -->
<svg version="1.1" id="infographic" xmlns="http://www.w3.org/2000/svg" xmlns:xlink="http://www.w3.org/1999/xlink" x="0px"
	 y="0px" viewBox="0 0 102.7 173" style="enable-background:new 0 0 102.7 173;" xml:space="preserve">
<style type="text/css">
	.st0{fill:#E6EFF0;}
	.st1{fill:#D5E5E6;}
	.st2{fill:#FFFF88;}
	.st3{fill:#FFFFFF;}
	.st4{fill:#262626;}
</style>
<g>
	<g>
		<g>
			<g>
				<g>
					<g>
						<path class="st0" d="M99.9,141.7c0,13.4-10.8,24.2-24.2,24.2H25.4c-13.4,0-24.2-10.9-24.2-24.2V51.4C1.1,38,12,27.2,25.4,27.2
							h50.3c13.4,0,24.2,10.9,24.2,24.2V141.7z"/>
					</g>
				</g>
			</g>
			<g>
				<g>
					<g>
						<path class="st1" d="M91.9,58.4v75.5c0,11.2-9.1,20.3-20.3,20.3H29.5c-11.2,0-20.3-9.1-20.3-20.3V58.4
							c0-11.2,9.1-20.3,20.3-20.3h42.1C82.8,38.1,91.9,47.1,91.9,58.4z"/>
					</g>
				</g>
			</g>
			<g>
				<g>
					<g>
						<rect x="26.6" y="11.4" class="st0" width="10.9" height="26.7"/>
					</g>
				</g>
			</g>
			<g>
				<g>
					<g>
						<rect x="62.1" y="11.4" class="st0" width="10.9" height="26.7"/>
					</g>
				</g>
			</g>
			<g>
				<g>
					<g>
						<rect x="44.2" y="2.3" class="st0" width="10.9" height="35.8"/>
					</g>
				</g>
			</g>
			<g>
				<g>
					<g>
						<path class="st2" d="M91.9,67.8v66.1c0,11.2-9.1,20.3-20.3,20.3H29.5c-11.2,0-20.3-9.1-20.3-20.3V67.8H91.9z"/>
					</g>
				</g>
			</g>
			<g>
				<g>
					<g>
						<path class="st3" d="M76,133.2c0,2-1.6,3.7-3.7,3.7H28.7c-2,0-3.7-1.6-3.7-3.7V89.5c0-2,1.6-3.7,3.7-3.7h43.7
							c2,0,3.7,1.6,3.7,3.7V133.2z"/>
					</g>
				</g>
			</g>
			<g>
				<g>
					<g>
						<path class="st3" d="M88.6,77.2c0,2.2-1.8,4-4,4l0,0c-2.2,0-4-1.8-4-4V62.2c0-2.2,1.8-4,4-4l0,0c2.2,0,4,1.8,4,4V77.2z"/>
					</g>
				</g>
			</g>
		</g>
		<g>
			<g>
				<path class="st1" d="M38.6,14.7c0,1.1-0.9,2-1.9,2h-9.2c-1.1,0-1.9-0.9-1.9-2v-2.9c0-1.1,0.9-1.9,1.9-1.9h9.2
					c1.1,0,1.9,0.9,1.9,1.9V14.7z"/>
			</g>
		</g>
		<g>
			<g>
				<path class="st1" d="M74.1,14.7c0,1.1-0.9,2-1.9,2h-9.2c-1.1,0-1.9-0.9-1.9-2v-2.9c0-1.1,0.9-1.9,1.9-1.9h9.2
					c1.1,0,1.9,0.9,1.9,1.9V14.7z"/>
			</g>
		</g>
		<g>
			<g>
				<path class="st1" d="M56.2,168.6c0,1.1-0.9,1.9-1.9,1.9H45c-1.1,0-1.9-0.9-1.9-1.9v-2.9c0-1.1,0.9-1.9,1.9-1.9h9.2
					c1.1,0,1.9,0.9,1.9,1.9V168.6z"/>
			</g>
		</g>
		<g>
			<g>
				<path class="st1" d="M56.2,6.6c0,1.1-0.9,1.9-1.9,1.9H45c-1.1,0-1.9-0.9-1.9-1.9V3.7c0-1.1,0.9-1.9,1.9-1.9h9.2
					c1.1,0,1.9,0.9,1.9,1.9V6.6z"/>
			</g>
		</g>
	</g>
	<g>
		<rect x="34.2" y="102.4" class="st4" width="2" height="20.3"/>
		<rect x="38.2" y="102.4" class="st4" width="3.7" height="20.3"/>
		<rect x="63.1" y="102.4" class="st4" width="3.8" height="20.3"/>
		<rect x="52.6" y="102.4" class="st4" width="3.8" height="20.3"/>
		<rect x="44.3" y="102.4" class="st4" width="2" height="20.3"/>
		<rect x="48.5" y="102.4" class="st4" width="2" height="20.3"/>
		<rect x="58.7" y="102.4" class="st4" width="2" height="20.3"/>
	</g>
</g>
</svg>
